<?xml version="1.0" encoding="UTF-8" standalone="no"?>
<svg
   xmlns:dc="http://purl.org/dc/elements/1.1/"
   xmlns:cc="http://creativecommons.org/ns#"
   xmlns:rdf="http://www.w3.org/1999/02/22-rdf-syntax-ns#"
   xmlns:svg="http://www.w3.org/2000/svg"
   xmlns="http://www.w3.org/2000/svg"
   xmlns:sodipodi="http://sodipodi.sourceforge.net/DTD/sodipodi-0.dtd"
   xmlns:inkscape="http://www.inkscape.org/namespaces/inkscape"
   version="1.1"
   x="0px"
   y="0px"
   viewBox="0 0 64 80"
   style="enable-background:new 0 0 64 64;"
   xml:space="preserve"
   id="svg66"
   sodipodi:docname="plant_OK.svg"
   inkscape:export-filename="D:\Elektronika\ESP32 WeMos\Home Plants IoT\Inkscape\plant_OK.png"
   inkscape:export-xdpi="505.60001"
   inkscape:export-ydpi="505.60001"
   inkscape:version="0.92.5 (2060ec1f9f, 2020-04-08)"><metadata
     id="metadata72"><rdf:RDF><cc:Work
         rdf:about=""><dc:format>image/svg+xml</dc:format><dc:type
           rdf:resource="http://purl.org/dc/dcmitype/StillImage" /><dc:title></dc:title></cc:Work></rdf:RDF></metadata><defs
     id="defs70" /><sodipodi:namedview
     pagecolor="#ffffff"
     bordercolor="#666666"
     borderopacity="1"
     objecttolerance="10"
     gridtolerance="10"
     guidetolerance="10"
     inkscape:pageopacity="0"
     inkscape:pageshadow="2"
     inkscape:window-width="1366"
     inkscape:window-height="715"
     id="namedview68"
     showgrid="false"
     inkscape:zoom="6.85"
     inkscape:cx="10.10219"
     inkscape:cy="45.839416"
     inkscape:window-x="-8"
     inkscape:window-y="-8"
     inkscape:window-maximized="1"
     inkscape:current-layer="g60" /><g
     id="g60"><path
       d="M29,34v6H18c-0.6,0-1,0.4-1,1v6c0,0.6,0.4,1,1,1h1.2L23,61.3c0.1,0.4,0.5,0.7,1,0.7h16c0.4,0,0.8-0.3,1-0.7L44.8,48H46   c0.6,0,1-0.4,1-1v-6c0-0.6-0.4-1-1-1H35v-2c15.8-0.5,16-12.8,16-13c0-0.6-0.4-1-1-1c-8.7,0-12.9,3.4-15,6.8V26   c10.7-0.5,13.5-8.8,14-10.6c0-0.1,0-0.2,0-0.3c0-0.6-0.4-1-1-1c-7.3,0-11.1,2.7-13,5.4V16c9.9-0.5,10-8.9,10-9c0-0.6-0.4-1-1-1   c-4.8,0-7.5,1.7-9,3.6V9c0-0.6-0.4-1-1-1h-3.7c-1-2.6-3.6-6-10.3-6c-0.6,0-1,0.4-1,1c0,0.1,0.1,8.4,10,9v3.4   c-1.9-2.7-5.7-5.4-13-5.4c-0.6,0-1,0.4-1,1c0,0.1,0,0.2,0.1,0.3l0,0C15.5,13,18.3,21.4,29,22v4.8c-2.1-3.3-6.3-6.8-15-6.8   c-0.6,0-1,0.4-1,1C13,21.1,13.2,33.5,29,34z M39.2,60H24.8l-3.4-12h21.3L39.2,60z M45,46H19v-4h26V46z M48.9,26   c-0.4,2.5-2.2,8.7-11.8,9.8l6.5-5c0.4-0.3,0.5-1,0.2-1.4c-0.3-0.4-1-0.5-1.4-0.2l-7,5.5C36.2,31.5,39.1,26.4,48.9,26z M46.6,16   c-1.5,4-5,6.9-9.2,7.6l5.2-3.9c0.4-0.3,0.5-1,0.2-1.4c-0.3-0.4-1-0.5-1.4-0.2l-5.9,4.5C36.4,20.1,39,16.4,46.6,16z M42.9,8   c-0.5,2.8-2.7,5-5.5,5.6l2.3-1.8c0.4-0.3,0.5-1,0.2-1.4c-0.3-0.4-1-0.5-1.4-0.2l-2.8,2.2C36.4,10.6,38.3,8.4,42.9,8L42.9,8z    M21.1,4c4.5,0.3,6.4,2.5,7.2,4.4l-2.8-2.2c-0.4-0.3-1.1-0.3-1.4,0.2s-0.3,1.1,0.2,1.4l2.3,1.8C23.9,9,21.7,6.8,21.1,4L21.1,4z    M17.4,12c7.6,0.4,10.2,4.1,11.1,6.6l-5.9-4.4c-0.4-0.3-1.1-0.2-1.4,0.2c-0.3,0.4-0.2,1.1,0.2,1.4l5.2,3.9C22.4,19,18.8,16,17.4,12   z M31,10h2v30h-2V10z M28.7,30.8l-8.1-5.7c-0.5-0.3-1.1-0.2-1.4,0.3c-0.3,0.4-0.2,1,0.2,1.3l7.1,4.9c-9.2-1.2-11-7.3-11.4-9.7   C25,22.4,27.8,27.7,28.7,30.8z"
       id="path58"
       style="fill:#09c403;fill-opacity:1" /></g></svg>