<?xml version="1.0" encoding="UTF-8" standalone="no"?>
<svg
   xmlns:dc="http://purl.org/dc/elements/1.1/"
   xmlns:cc="http://creativecommons.org/ns#"
   xmlns:rdf="http://www.w3.org/1999/02/22-rdf-syntax-ns#"
   xmlns:svg="http://www.w3.org/2000/svg"
   xmlns="http://www.w3.org/2000/svg"
   xmlns:sodipodi="http://sodipodi.sourceforge.net/DTD/sodipodi-0.dtd"
   xmlns:inkscape="http://www.inkscape.org/namespaces/inkscape"
   version="1.1"
   x="0px"
   y="0px"
   viewBox="0 0 90 112.5"
   style="enable-background:new 0 0 90 90;"
   xml:space="preserve"
   id="svg4602"
   sodipodi:docname="plant_bad.svg"
   inkscape:version="0.92.5 (2060ec1f9f, 2020-04-08)"><metadata
     id="metadata4608"><rdf:RDF><cc:Work
         rdf:about=""><dc:format>image/svg+xml</dc:format><dc:type
           rdf:resource="http://purl.org/dc/dcmitype/StillImage" /><dc:title></dc:title></cc:Work></rdf:RDF></metadata><defs
     id="defs4606" /><sodipodi:namedview
     pagecolor="#ffffff"
     bordercolor="#666666"
     borderopacity="1"
     objecttolerance="10"
     gridtolerance="10"
     guidetolerance="10"
     inkscape:pageopacity="0"
     inkscape:pageshadow="2"
     inkscape:window-width="1366"
     inkscape:window-height="715"
     id="namedview4604"
     showgrid="false"
     inkscape:zoom="11.866823"
     inkscape:cx="44.430861"
     inkscape:cy="81.961934"
     inkscape:window-x="-8"
     inkscape:window-y="-8"
     inkscape:window-maximized="1"
     inkscape:current-layer="svg4602" /><path
     d="m 37.94281,37.55835 c -2.306519,-2.562622 -7.991272,-5.825012 -21.132263,-1.593506 -0.01929,0.0062 -0.03223,0.02289 -0.05096,0.03021 -0.08911,0.03461 -0.1651,0.0849 -0.239502,0.142029 -0.03638,0.02789 -0.07635,0.04755 -0.108582,0.08014 -0.09247,0.09326 -0.166626,0.202209 -0.216675,0.325439 -0.0029,0.007 -0.0095,0.01129 -0.01221,0.01837 -2.44e-4,6.71e-4 -6.1e-5,0.0013 -3.05e-4,0.002 -0.04651,0.122803 -0.07007,0.256409 -0.06415,0.395935 3.66e-4,0.008 0.0048,0.01434 0.0053,0.02228 0.0025,0.03809 0.01929,0.0722 0.02612,0.109802 0.0191,0.108032 0.04687,0.210205 0.0965,0.302185 0.0052,0.0096 0.0042,0.02112 0.0098,0.03058 0.05566,0.0957 4.794922,7.903809 14.87793,7.903809 1.697327,-3.66e-4 3.552734,-0.235535 5.555725,-0.751831 -0.161072,1.149048 -0.293213,2.222168 -0.396545,3.175171 -0.130371,1.20343 -0.234985,2.390747 -0.324402,3.557617 H 19.774414 c -0.552734,0 -1,0.447754 -1,1 v 4.882324 c 0,0.552246 0.447266,1 1,1 h 2.348389 l 3.940674,26.535156 c 0.07324,0.490234 0.494141,0.853027 0.989258,0.853027 h 29.383789 c 0.495117,0 0.916016,-0.362793 0.989258,-0.853027 l 3.94165,-26.535156 h 2.347412 c 0.552734,0 1,-0.447754 1,-1 v -4.882324 c 0,-0.552246 -0.447266,-1 -1,-1 H 42.769043 c 0.07562,-0.924133 0.160706,-1.864929 0.26416,-2.827148 0.155334,-1.439392 0.375305,-3.154053 0.68042,-5.02655 2.941711,0.89447 5.590759,1.275574 7.964111,1.275574 12.990235,-4.9e-4 17.793946,-11.333497 17.850586,-11.471681 0.02612,-0.06403 0.02441,-0.132751 0.03674,-0.199646 0.01086,-0.05444 0.03644,-0.103394 0.03748,-0.160706 1.22e-4,-0.0076 -0.0039,-0.01404 -0.004,-0.02161 -1.83e-4,-0.05823 -0.02087,-0.112793 -0.03125,-0.170227 -0.01398,-0.07654 -0.02203,-0.153687 -0.05243,-0.223145 -0.0036,-0.0083 -0.0023,-0.0177 -0.0061,-0.02594 -0.01898,-0.04059 -0.05499,-0.06793 -0.07892,-0.105164 -0.04358,-0.06799 -0.08478,-0.135254 -0.143127,-0.190735 -0.04053,-0.03857 -0.08868,-0.06354 -0.135132,-0.09479 -0.06403,-0.04333 -0.126099,-0.08496 -0.199585,-0.112732 -0.01666,-0.0063 -0.02875,-0.02045 -0.04578,-0.02588 -12.005615,-3.829651 -19.486328,-0.374573 -23.130798,2.339966 0.06909,-0.233948 0.13092,-0.468262 0.203064,-0.701782 0.956604,-3.190674 2.241638,-6.219727 3.681213,-8.752869 1.58429,1.149414 5.080078,3.111755 10.518982,3.111755 3.550781,0 7.927734,-0.838867 13.130859,-3.290527 0.01196,-0.0057 0.01855,-0.01807 0.03027,-0.02417 0.117981,-0.06104 0.223572,-0.142212 0.310425,-0.247803 0.01575,-0.01917 0.0257,-0.04028 0.04004,-0.06055 0.03369,-0.04761 0.07117,-0.0918 0.0968,-0.146484 0.02075,-0.04407 0.01959,-0.09082 0.03345,-0.136047 0.01001,-0.03223 0.03497,-0.05701 0.04175,-0.09051 0.0048,-0.02362 -0.0052,-0.04663 -0.0021,-0.07031 0.01294,-0.09815 0.0068,-0.192139 -0.0089,-0.287781 -0.0075,-0.04584 -0.007,-0.09033 -0.02069,-0.134705 -0.0412,-0.133118 -0.104248,-0.258118 -0.197327,-0.364441 -0.002,-0.0023 -0.0023,-0.0057 -0.0043,-0.008 -1.22e-4,-1.22e-4 -0.0011,-0.0012 -0.0012,-0.0013 -2.44e-4,-3.05e-4 -5.49e-4,-6.1e-4 -8.54e-4,-9.77e-4 -0.111694,-0.12384 -7.36084,-8.006409 -18.226196,-5.060791 l 0.347412,-0.267517 c 0.310547,-0.243164 0.620117,-0.44873 0.954102,-0.628906 l 0.433594,-0.256836 c 1.076172,-0.710449 1.318359,-2.367676 0.59082,-4.027344 -0.432617,-0.993652 -1.232422,-1.753418 -2.140625,-2.032715 -0.666992,-0.20459 -1.341797,-0.126465 -1.869141,0.207031 l -0.481445,0.283691 c -0.50293,0.278809 -1.007813,0.612305 -1.481445,0.976563 l -1.012695,0.747559 -0.841919,0.735657 C 49.276796,11.228757 47.994875,9.175595 46.049807,7.633786 40.947268,3.591306 33.211916,4.48779 32.886721,4.528317 32.84717,4.5332 32.813967,4.55621 32.775637,4.565609 c -0.06726,0.016541 -0.130615,0.034973 -0.193054,0.06488 -0.05731,0.027344 -0.107056,0.061035 -0.158203,0.098755 -0.05438,0.039917 -0.103333,0.08197 -0.149231,0.132935 -0.02063,0.022827 -0.04956,0.035767 -0.06811,0.060669 -0.02283,0.030579 -0.02869,0.068909 -0.04767,0.101624 -0.01892,0.032104 -0.0481,0.054504 -0.06366,0.089294 -0.01294,0.028992 -0.01001,0.059631 -0.01996,0.089111 -0.02154,0.063171 -0.03424,0.125 -0.04285,0.191284 -0.0089,0.068848 -0.01257,0.134277 -0.0072,0.202271 0.0023,0.030457 -0.0083,0.060181 -0.0032,0.090576 1.685242,10.013184 9.814758,12.408447 13.511108,12.981506 -1.02002,1.456482 -1.988892,3.103088 -2.881592,4.899841 -0.913391,-2.397156 -2.814087,-5.92865 -6.614868,-8.539551 -4.817383,-3.308594 -11.251953,-4.168457 -19.121094,-2.550293 -0.04297,0.0088 -0.0777,0.03632 -0.118713,0.05054 -0.0686,0.02374 -0.13501,0.04596 -0.196838,0.08386 -0.05139,0.03137 -0.09259,0.0719 -0.137573,0.112 -0.05255,0.04675 -0.102722,0.09216 -0.144897,0.149902 -0.01251,0.01709 -0.0321,0.02716 -0.04358,0.0451 -0.02429,0.03809 -0.02905,0.08343 -0.04779,0.123962 -0.02008,0.04279 -0.05225,0.07666 -0.06647,0.123108 -0.0067,0.02203 -0.0012,0.04382 -0.0063,0.06592 -0.01471,0.0628 -0.01575,0.124573 -0.01807,0.189148 -0.0024,0.07031 -0.0053,0.137817 0.0067,0.20575 0.0035,0.0202 -0.0027,0.04059 0.002,0.06067 0.04297,0.185059 4.154297,16.702148 19.978516,16.700684 1.214844,-3.66e-4 2.503967,-0.103638 3.861206,-0.313416 -0.165649,0.497559 -0.335022,0.992798 -0.487183,1.498962 -0.620243,2.010808 -1.12714,4.028569 -1.554264,5.983648 z m -0.552307,2.707641 c -0.001,0.0056 -0.0024,0.01154 -0.0034,0.01709 -3.941711,-2.503601 -9.085571,-3.591919 -13.216003,-4.055054 10.058837,-1.520996 12.736145,2.97815 13.219421,4.037964 z M 19.099915,37.911072 c 3.844971,0.0769 12.526794,0.696167 17.875488,4.504761 -9.900757,2.904296 -15.625061,-1.889832 -17.875488,-4.504761 z m 36.474304,45.66803 H 27.915039 L 24.144958,58.190918 h 8.382703 26.817614 z m 7.140625,-30.270508 v 2.882324 h -41.94043 v -2.882324 z m -18.6521,-11.845032 c 0.02698,-0.14447 0.05841,-0.293945 0.08643,-0.439697 8.750122,-5.781799 18.917114,-6.894897 22.805847,-7.099548 -2.033142,3.530944 -8.592712,12.003845 -22.892273,7.539245 z m 17.858277,-9.042175 c -4.65564,0.693909 -11.088623,2.277588 -17.200134,5.884583 0.03687,-0.161255 0.06934,-0.31958 0.107544,-0.481506 0.895629,-1.059266 6.21527,-6.680482 17.09259,-5.403077 z M 50.704224,23.104431 c 0.0078,-0.01172 0.01581,-0.02185 0.0235,-0.03351 9.665649,-1.189453 16.14032,-0.08411 19.353943,0.778503 -11.080079,4.362732 -17.456849,0.701294 -19.377442,-0.744995 z m 17.38623,-1.769043 c -3.296021,-0.627502 -8.159973,-1.092407 -14.621155,-0.556396 6.277527,-2.656494 11.353028,-1.230774 14.621155,0.556396 z M 44.814453,9.206543 c 1.780273,1.414001 2.89032,3.372437 3.31897,5.82019 C 45.76355,11.582336 40.768799,8.444519 37.251892,6.5307 c 2.372803,0.225831 5.315369,0.892457 7.562561,2.675843 z M 34.448181,7.325806 c 3.361023,1.695129 10.329834,5.569031 12.459778,9.50592 -2.036255,-0.125854 -9.993103,-1.15448 -12.459778,-9.50592 z m 0.431702,9.334839 c 4.281494,2.928528 5.877197,7.284302 6.375793,9.075256 -4.770081,-5.667419 -14.49646,-9.870667 -19.948242,-11.894714 5.487854,-0.526673 10.046814,0.407409 13.572449,2.819458 z M 18.64624,15.019348 c 4.714905,1.638062 17.271545,6.478394 21.807861,12.943237 -14.62268,2.693909 -20.18518,-8.436218 -21.807861,-12.943237 z m 22.764893,17.137879 c 1.763672,-5.868652 4.472656,-11.155762 7.474609,-14.556152 0.213867,-0.276367 0.457031,-0.521973 0.69043,-0.76123 0.141602,-0.145508 0.28125,-0.288086 0.413086,-0.433594 0.325195,-0.357422 0.667969,-0.6875 1.035156,-0.995605 l 0.96582,-0.848633 0.964844,-0.70752 c 0.413086,-0.317871 0.833008,-0.596191 1.271484,-0.838867 l 0.532227,-0.313965 c 0.02051,-0.01172 0.08496,-0.04932 0.239258,-0.0024 0.28418,0.0874 0.670898,0.405762 0.895508,0.921875 0.367188,0.837402 0.245117,1.457031 0.182617,1.53125 l -0.353516,0.208496 c -0.402344,0.216309 -0.808594,0.485352 -1.177734,0.775879 l -0.817383,0.598145 -0.792969,0.698242 c -0.345703,0.28418 -0.68457,0.61084 -1.006836,0.970215 -0.09766,0.10791 -0.201172,0.212402 -0.305664,0.318359 -0.217773,0.220215 -0.463867,0.469727 -0.643555,0.712402 -0.183594,0.206238 -0.364929,0.444519 -0.547302,0.669312 -0.03418,0.03638 -0.06439,0.07245 -0.09241,0.113037 -0.318542,0.398438 -0.633362,0.822876 -0.945618,1.273132 -0.02435,0.02887 -0.04291,0.05957 -0.0639,0.091 -2.069641,3.011658 -3.966431,7.075623 -5.263855,11.403809 -0.426147,1.379395 -0.798157,2.767212 -1.125366,4.134033 -0.0011,0.0041 -0.002,0.008 -0.0031,0.01215 -0.249756,1.043945 -0.465759,2.067017 -0.664307,3.072266 -0.0045,0.0202 -0.0085,0.03931 -0.01178,0.05975 -0.596069,3.029175 -0.980835,5.827148 -1.216003,8.004517 -0.111633,1.036133 -0.202515,2.049072 -0.281799,3.041504 h -2.788086 c 0.08551,-1.09729 0.183777,-2.211853 0.306213,-3.342285 0.431642,-3.982912 1.32422,-9.957033 3.129884,-15.809083 z"
     id="path4596"
     inkscape:connector-curvature="0"
     sodipodi:nodetypes="cccccccccccccccccssssccssccsssscccccccccccccccccccsccccccccccccccccccccccccccccccccccccccccccccccccccccccccccccccccccccccccccccccccccccccccccccccccccccccccccccccccccccccccccccccccccccccccc"
     style="fill:#a02c09;fill-opacity:1" /></svg>